<?xml version="1.0" encoding="UTF-8"?>
<svg id="katman_1" xmlns="http://www.w3.org/2000/svg" version="1.1" viewBox="0 0 190.38 56.71">
  <!-- Generator: Adobe Illustrator 30.2.1, SVG Export Plug-In . SVG Version: 2.1.1 Build 1)  -->
  <defs>
    <style>
      .st0 {
        fill: #d8cbb8;
      }
    </style>
  </defs>
  <path class="st0" d="M4.95.78c3.43,0,8.26-.78,11.69-.78,5.49,0,10.52,1.71,10.52,7.17,0,10.17-17.61,9.39-17.61,13.72,0,.9.66,1.01,1.13,1.01,1.64,0,4.36-2.38,8.11-2.38,5.96,0,10.83,3.82,10.83,9.74,0,6.74-4.64,11.26-12.94,11.26-4.52,0-7.29-.78-11.57-.78H.43v-.39c3.35,0,3.58-2.77,3.58-10.44V11.61C4.01,3.93,3.78,1.17.43,1.17v-.39h4.52,0ZM7.33,35.78c0,1.88,1.33,3.5,3.17,3.86,1.19.23,2.43.34,3.96.34,7.25,0,11.81-3.97,11.81-10.44,0-4.68-2.65-9.59-7.52-9.59-3.27,0-5.92,2.34-8.22,2.34-.7,0-1.36-.39-1.36-1.32,0-5.1,14.65-5.85,14.65-13.72,0-4.83-4.68-6.7-9.43-6.7-.34,0-.68,0-1.01.02-3.37.14-6.04,2.91-6.04,6.29v28.93h0Z"/>
  <path class="st0" d="M31.53,25.95c0-8.03,4.99-14.57,13.37-14.57s13.44,6.55,13.44,14.57-5.07,14.57-13.44,14.57-13.37-6.55-13.37-14.57ZM44.89,40.06c6.04,0,10.13-5.53,10.13-14.11s-4.09-14.11-10.13-14.11-10.05,5.53-10.05,14.11,4.01,14.11,10.05,14.11Z"/>
  <path class="st0" d="M57.65,39.75v-.39c3.35,0,3.58-2.77,3.58-10.44v-5.92c0-7.68-.23-10.44-3.58-10.44v-.39h4.52c4.48,0,9.51-.78,13.83-.78,3.47,0,6.04,1.75,6.04,4.75,0,2.07-1.13,3.78-3.35,3.78-1.09,0-2.14-.7-2.14-1.79,1.09-.04,2.1-1.32,2.1-2.92,0-1.79-1.36-3.27-4.17-3.27-.52,0-1.18.02-1.91.06-4.48.24-7.99,3.96-7.99,8.44v8.49c0,7.68.23,10.44,3.58,10.44v.39h-10.52,0Z"/>
  <path class="st0" d="M81.36,25.95c0-8.03,4.99-14.57,13.37-14.57s11.96,4.95,11.92,8.88c-.04,4.4-2.57,7.05-7.05,7.05-6.27,0-8.18-3.47-12-3.47-.94,0-1.79.66-1.91.97l-.16-.04c0-1.6,1.4-3.12,4.09-3.12,4.09,0,7.13,5.18,10.25,5.18,5.77,0,5.92-15-5.22-15-7.91,0-10.01,8.49-9.94,13.99.08,7.25,4.25,13.37,11.42,13.37,3.08,0,8.22-1.68,10.13-6.7l.55.23c-2.03,4.64-6.27,7.79-12.08,7.79-8.38,0-13.37-6.55-13.37-14.57h0Z"/>
  <path class="st0" d="M110.69,28.92v-5.92c0-7.68-.23-10.44-3.59-10.44v-.39h4.44c3.2,0,8.07-.78,10.29-.78,3.47,0,10.4.51,10.4,8.69v8.85c0,7.68.23,10.44,3.58,10.44v.39h-10.52v-.39c3.35,0,3.59-2.77,3.59-10.44,0-1.17-.04-8.03-.04-8.03,0-8.73-6.12-8.96-8.77-8.96h-.06c-3.32.02-5.98,2.77-5.98,6.1v10.89c0,7.68.23,10.44,3.58,10.44v.39h-10.52v-.39c3.35,0,3.59-2.77,3.59-10.44h.01Z"/>
  <path class="st0" d="M134.44,47.97c0-3.43,3-5.73,6.04-5.73,3.58,0,5.03,1.71,8.65,1.71.93,0,2.73-.51,2.34-1.95l.16-.04c1.48,1.87.08,5.22-3.27,5.22-2.88,0-4.4-1.71-7.95-1.71-1.75,0-3.66,1.32-3.66,3.23,0,4.56,4.21,7.6,10.09,7.6s11.53-4.83,11.53-11.5c0-4.05-3.47-7.01-8.69-7.01-3.53,0-4.11.86-8,.68-1.26-.06-2.31-1.11-2.25-2.37.26-5.48,16.52-.71,16.52-14.09,0-5.26-3.12-10.17-8.42-10.17s-8.46,5.03-8.46,10.29,3.66,8.85,8.07,8.85v.35c-.66.12-1.32.16-1.95.16-5.69,0-9.47-4.36-9.47-9.35,0-5.53,4.4-10.75,11.81-10.75l11.3.78-.02.38h-.02c-1.72-.17-2.77,1.8-1.7,3.17,1.44,1.85,2.21,4.11,2.21,6.42,0,14.22-19.44,9.2-19.44,14.03,0,1.29,1.52,1.95,2.84,1.95,3.7,0,6.23-1.87,9.94-1.87,4.6,0,8.65,3.58,8.65,8.26,0,6.78-5.49,12.2-14.53,12.2-7.13,0-12.31-2.96-12.31-8.73h0Z"/>
  <path class="st0" d="M161.29,12.16h4.79c1.75,0,2.81,1.6,3.27,3.12,2.07,6.7,3.35,11.18,5.77,18.74.36,1.11.8,1.93,1.29,2.49.6.67,1.71.41,1.99-.45,1.8-5.65,3.34-10.47,4.67-15.06.9-3.12,1.71-8.46-2.65-8.46h-.86v-.39h10.25v.39h-.66c-2.69,0-4.6,5.22-5.34,7.6-1.91,6.12-3.82,12.43-6.35,20.38-1.05,3-5.46,15.39-8.96,15.39h-5.26v-.39c4.75,0,11.81-8.65,13.76-15-1.01-.04-3.55-.86-5.38-6.51-2.07-6.43-3.27-10.64-4.91-15.9-.74-2.38-1.68-5.57-4.48-5.57h-.94v-.39h0Z"/>
</svg>