<?xml version="1.0" encoding="UTF-8"?>
<svg id="katman_1" data-name="katman 1" xmlns="http://www.w3.org/2000/svg" viewBox="0 0 240.94 155.91">
  <defs>
    <style>
      .cls-1 {
        fill: #d8cbb8;
      }
    </style>
  </defs>
  <path class="cls-1" d="M149.12,65.89c-6.86,0-9.72,3.2-16.45,3.36-.33-4.77-2.81-8.89-6.43-11.62-1.71-1.3-3.67-2.28-5.77-2.87-2.11.6-4.06,1.58-5.77,2.87-3.62,2.73-6.1,6.85-6.43,11.62-6.73-.16-9.59-3.36-16.46-3.36-5.97,0-11.87,4.52-11.87,11.26,0,11.33,10.19,17.15,24.2,17.15,6.41,0,11.91-1.38,16.33-3.78,4.41,2.4,9.91,3.78,16.32,3.78,14.01,0,24.2-5.82,24.2-17.15,0-6.74-5.9-11.26-11.87-11.26ZM104.3,93.54c-11.56,0-19.83-5.97-19.83-14.94,0-3.75,3.75-6.35,7.2-6.35,6.97,0,9.96,3.37,15.62,3.37.53,0,1.03-.04,1.5-.12,1.22,5.41,4.37,10.11,9.14,13.46-3.89,2.91-8.68,4.58-13.63,4.58ZM114,71.99c-.02-.34-.02-.69-.02-1.04,0-1.4.21-2.73.62-3.98h0c.96-2.98,3-5.45,5.88-7.18t0,0c2.88,1.73,4.92,4.21,5.87,7.17h0c.41,1.25.62,2.58.62,3.99,0,.35,0,.7-.02,1.04-.26,5.89-2.73,11-6.47,14.76-3.74-3.77-6.22-8.87-6.48-14.76ZM136.64,93.54c-4.95,0-9.74-1.67-13.63-4.58,4.77-3.35,7.92-8.06,9.14-13.46.47.08.98.12,1.5.12,5.67,0,8.65-3.37,15.62-3.37,3.45,0,7.2,2.6,7.2,6.35,0,8.96-8.27,14.94-19.83,14.94Z"/>
</svg>